<svg width="164" height="188" viewBox="0 0 164 188" fill="none" xmlns="http://www.w3.org/2000/svg">
<path fill-rule="evenodd" clip-rule="evenodd" d="M94.1611 65.2043H130.828C130.049 53.9157 124.461 47.1343 111.053 48.6896L94.1611 65.2043Z" fill="url(#paint0_linear_824_1499)"/>
<path fill-rule="evenodd" clip-rule="evenodd" d="M57.2051 57.78C75.3217 52.3289 95.1466 55.7699 111.038 67.3962C118.801 73.0617 125.621 80.7198 130.813 90.2781L163.884 44.439C155.109 30.4921 144.286 19.3235 132.143 11.6868C120 4.05005 106.82 0.122764 93.4925 0.169852C41.8844 0.169852 0.0595703 58.1392 0.0595703 129.67C4.22226 111.779 11.6918 95.7214 21.7207 83.1051C31.7495 70.4887 43.9859 61.7557 57.2051 57.78Z" fill="url(#paint1_linear_824_1499)"/>
<path fill-rule="evenodd" clip-rule="evenodd" d="M109.796 137.647C104.573 139.566 99.054 140.546 93.4919 140.545C87.3455 140.554 81.2575 139.348 75.5759 136.995C69.8944 134.642 64.7307 131.188 60.38 126.832C56.0294 122.475 52.5771 117.301 50.2206 111.605C47.864 105.908 46.6494 99.802 46.6461 93.6345C37.7419 136.301 80.0836 188.441 128.275 180.468C141.957 174.968 154.156 166.311 163.884 155.199L130.813 122.111C125.397 129.164 118.114 134.547 109.796 137.647Z" fill="url(#paint2_linear_824_1499)"/>
<path fill-rule="evenodd" clip-rule="evenodd" d="M128.274 180.468C82.8325 185.042 46.645 140.08 46.645 93.6344C46.6443 84.3465 49.3944 75.2678 54.5459 67.5513C59.6975 59.8347 67.0181 53.8283 75.5783 50.2948C37.8325 48.7437 6.94499 80.1718 3.52832 119.004C7.13157 131.637 13.334 143.371 21.7356 153.45C30.1371 163.529 40.551 171.728 52.3054 177.519C64.0598 183.31 76.8936 186.565 89.9787 187.072C103.064 187.579 116.11 185.328 128.274 180.464V180.468Z" fill="url(#paint3_linear_824_1499)"/>
<path fill-rule="evenodd" clip-rule="evenodd" d="M111.039 48.689L106.168 53.4009C115.237 55.2023 123.711 59.2607 130.81 65.2037C125.63 58.3177 118.797 52.7779 111.035 48.689H111.039Z" fill="url(#paint4_linear_824_1499)"/>
<path fill-rule="evenodd" clip-rule="evenodd" d="M128.273 180.468C82.8318 185.042 46.6443 140.08 46.6443 93.6341C46.6277 82.9252 50.2837 72.5366 56.9985 64.2129C42.5568 82.1282 40.9526 103.409 47.161 124.176C56.7901 156.44 91.9984 187.132 128.273 180.468Z" fill="url(#paint5_linear_824_1499)"/>
<path fill-rule="evenodd" clip-rule="evenodd" d="M46.6465 93.6345C46.6465 140.081 82.834 185.042 128.276 180.468C103.221 181.698 81.484 163.172 78.7923 138.216C69.4445 135.118 61.3073 129.143 55.5366 121.14C49.7659 113.137 46.6552 103.513 46.6465 93.6345Z" fill="url(#paint6_linear_824_1499)"/>
<path fill-rule="evenodd" clip-rule="evenodd" d="M104.048 131.945L109.794 137.643C118.112 134.543 125.394 129.16 130.81 122.107C122.713 127.309 113.578 130.667 104.048 131.945Z" fill="url(#paint7_linear_824_1499)"/>
<path fill-rule="evenodd" clip-rule="evenodd" d="M49.2865 146.189C41.9324 152.661 28.1657 150.746 16.9365 137.698C24.3909 150.607 34.9654 161.424 47.6842 169.152C60.403 176.88 74.8566 181.269 89.7115 181.915C72.474 176.635 58.1865 162.758 49.2949 146.189H49.2865Z" fill="url(#paint8_linear_824_1499)"/>
<path fill-rule="evenodd" clip-rule="evenodd" d="M131.07 129.67C143.293 148.158 145.949 161.379 139.041 169.334C145.483 165.433 151.413 160.738 156.691 155.357L131.07 129.67Z" fill="url(#paint9_linear_824_1499)"/>
<path fill-rule="evenodd" clip-rule="evenodd" d="M94.1611 122.111L109.794 137.647C122.994 142.045 128.84 134.382 130.811 122.111H94.1611Z" fill="url(#paint10_linear_824_1499)"/>
<defs>
<linearGradient id="paint0_linear_824_1499" x1="95.7111" y1="70.6353" x2="139.833" y2="46.8424" gradientUnits="userSpaceOnUse">
<stop stop-color="#FF002D"/>
<stop offset="0.49" stop-color="#A90017"/>
<stop offset="1" stop-color="#510014"/>
</linearGradient>
<linearGradient id="paint1_linear_824_1499" x1="186.346" y1="-6.43983" x2="-33.1141" y2="63.2999" gradientUnits="userSpaceOnUse">
<stop stop-color="#FAFF95"/>
<stop offset="0.03" stop-color="#FBF486"/>
<stop offset="0.15" stop-color="#FCD256"/>
<stop offset="0.26" stop-color="#FDB631"/>
<stop offset="0.37" stop-color="#FEA316"/>
<stop offset="0.46" stop-color="#FF9706"/>
<stop offset="0.53" stop-color="#FF9300"/>
<stop offset="1" stop-color="#D0008E"/>
</linearGradient>
<linearGradient id="paint2_linear_824_1499" x1="168.05" y1="125.272" x2="47.9416" y2="142.714" gradientUnits="userSpaceOnUse">
<stop stop-color="#2A77FF"/>
<stop offset="0.53" stop-color="#003AF5"/>
<stop offset="1" stop-color="#0D007A"/>
</linearGradient>
<linearGradient id="paint3_linear_824_1499" x1="91.7325" y1="198.053" x2="12.8372" y2="29.919" gradientUnits="userSpaceOnUse">
<stop stop-color="#FF54FF"/>
<stop offset="0.49" stop-color="#9C00BF"/>
<stop offset="1" stop-color="#5A00A9"/>
</linearGradient>
<linearGradient id="paint4_linear_824_1499" x1="6614.53" y1="4881.06" x2="8653.56" y2="3234.81" gradientUnits="userSpaceOnUse">
<stop stop-color="#FF002D"/>
<stop offset="0.49" stop-color="#A90017"/>
<stop offset="1" stop-color="#510014"/>
</linearGradient>
<linearGradient id="paint5_linear_824_1499" x1="97.9651" y1="175.217" x2="19.0698" y2="7.08255" gradientUnits="userSpaceOnUse">
<stop stop-color="#FFA9FF"/>
<stop offset="0.49" stop-color="#9C00BF"/>
<stop offset="1" stop-color="#5A00A9"/>
</linearGradient>
<linearGradient id="paint6_linear_824_1499" x1="40040" y1="35605.1" x2="16451.8" y2="38824.4" gradientUnits="userSpaceOnUse">
<stop stop-color="#2A77FF"/>
<stop offset="0.53" stop-color="#003AF5"/>
<stop offset="1" stop-color="#0D007A"/>
</linearGradient>
<linearGradient id="paint7_linear_824_1499" x1="8080.6" y1="5786.67" x2="8596.65" y2="6964.48" gradientUnits="userSpaceOnUse">
<stop stop-color="#AE24FE"/>
<stop offset="0.49" stop-color="#662AED"/>
<stop offset="1" stop-color="#0026BF"/>
</linearGradient>
<linearGradient id="paint8_linear_824_1499" x1="74.8407" y1="205.981" x2="-4.05485" y2="37.8463" gradientUnits="userSpaceOnUse">
<stop stop-color="#FF9FFF"/>
<stop offset="0.49" stop-color="#9C00BF"/>
<stop offset="1" stop-color="#5A00A9"/>
</linearGradient>
<linearGradient id="paint9_linear_824_1499" x1="170.812" y1="144.274" x2="50.6949" y2="161.721" gradientUnits="userSpaceOnUse">
<stop stop-color="#2A92FF"/>
<stop offset="0.53" stop-color="#003AF5"/>
<stop offset="1" stop-color="#0D007A"/>
</linearGradient>
<linearGradient id="paint10_linear_824_1499" x1="104.103" y1="110.968" x2="122.286" y2="134.978" gradientUnits="userSpaceOnUse">
<stop stop-color="#AE24FE"/>
<stop offset="0.49" stop-color="#662AED"/>
<stop offset="1" stop-color="#0026BF"/>
</linearGradient>
</defs>
</svg>
